<svg xmlns="http://www.w3.org/2000/svg" xmlns:xlink="http://www.w3.org/1999/xlink" width="69" height="49" viewBox="0 0 69 49">
    <defs>
        <path id="b" d="M477.692 1824h29.616c2.675 0 3.645.278 4.623.801a5.452 5.452 0 0 1 2.268 2.268c.523.978.801 1.948.801 4.623v29.616c0 2.675-.278 3.645-.801 4.623a5.452 5.452 0 0 1-2.268 2.268c-.978.523-1.948.801-4.623.801h-29.616c-2.675 0-3.645-.278-4.623-.801a5.452 5.452 0 0 1-2.268-2.268c-.523-.978-.801-1.948-.801-4.623v-29.616c0-2.675.278-3.645.801-4.623a5.452 5.452 0 0 1 2.268-2.268c.978-.523 1.948-.801 4.623-.801zm14.808 39c9.113 0 16.5-7.387 16.5-16.5s-7.387-16.5-16.5-16.5-16.5 7.387-16.5 16.5 7.387 16.5 16.5 16.5zm0-6c-5.799 0-10.5-4.701-10.5-10.5s4.701-10.5 10.5-10.5 10.5 4.701 10.5 10.5-4.701 10.5-10.5 10.5zm28.5-18.401l10.836-7.756a2 2 0 0 1 3.164 1.626v28.066a2 2 0 0 1-3.164 1.626L521 1854.406v-15.807z"/>
        <filter id="a" width="109.2%" height="113.3%" x="-4.6%" y="-6.7%" filterUnits="objectBoundingBox">
            <feOffset in="SourceAlpha" result="shadowOffsetOuter1"/>
            <feGaussianBlur in="shadowOffsetOuter1" result="shadowBlurOuter1" stdDeviation="1"/>
            <feColorMatrix in="shadowBlurOuter1" values="0 0 0 0 0 0 0 0 0 0 0 0 0 0 0 0 0 0 0.5 0"/>
        </filter>
    </defs>
    <g fill="none" fill-rule="evenodd" transform="translate(-468 -1822)">
        <use fill="#000" filter="url(#a)" xlink:href="#b"/>
        <use fill="#FFF" xlink:href="#b"/>
    </g>
</svg>
