<svg xmlns="http://www.w3.org/2000/svg" xmlns:xlink="http://www.w3.org/1999/xlink" width="47" height="47" viewBox="0 0 47 47">
    <defs>
        <path id="b" d="M594.862 1833.138c.684.111 1.131.29 1.58.53a4.543 4.543 0 0 1 1.89 1.89c.436.815.668 1.623.668 3.852v23.18c0 2.23-.232 3.037-.668 3.852a4.543 4.543 0 0 1-1.89 1.89c-.815.436-1.623.668-3.852.668h-23.18c-2.23 0-3.037-.232-3.852-.668a4.543 4.543 0 0 1-1.89-1.89 4.717 4.717 0 0 1-.53-1.58c.557.091 1.271.138 2.272.138h23.18c2.23 0 3.037-.232 3.852-.668a4.543 4.543 0 0 0 1.89-1.89c.436-.815.668-1.623.668-3.852v-23.18c0-1-.047-1.715-.138-2.272zM562.41 1826h23.18c2.23 0 3.037.232 3.852.668a4.543 4.543 0 0 1 1.89 1.89c.436.815.668 1.623.668 3.852v23.18c0 2.23-.232 3.037-.668 3.852a4.543 4.543 0 0 1-1.89 1.89c-.815.436-1.623.668-3.852.668h-23.18c-2.23 0-3.037-.232-3.852-.668a4.543 4.543 0 0 1-1.89-1.89c-.436-.815-.668-1.623-.668-3.852v-23.18c0-2.23.232-3.037.668-3.852a4.543 4.543 0 0 1 1.89-1.89c.815-.436 1.623-.668 3.852-.668z"/>
        <filter id="a" width="114%" height="114%" x="-7%" y="-7%" filterUnits="objectBoundingBox">
            <feOffset in="SourceAlpha" result="shadowOffsetOuter1"/>
            <feGaussianBlur in="shadowOffsetOuter1" result="shadowBlurOuter1" stdDeviation="1"/>
            <feColorMatrix in="shadowBlurOuter1" values="0 0 0 0 0 0 0 0 0 0 0 0 0 0 0 0 0 0 0.5 0"/>
        </filter>
    </defs>
    <g fill="none" fill-rule="evenodd" transform="translate(-554 -1824)">
        <use fill="#000" filter="url(#a)" xlink:href="#b"/>
        <use fill="#FFF" xlink:href="#b"/>
    </g>
</svg>
