<?xml version="1.0" encoding="UTF-8"?>
<svg width="137px" height="135px" viewBox="0 0 137 135" version="1.1" xmlns="http://www.w3.org/2000/svg" xmlns:xlink="http://www.w3.org/1999/xlink">
    <!-- Generator: Sketch 47.1 (45422) - http://www.bohemiancoding.com/sketch -->
    <title>Instagram Icon</title>
    <desc>Created with Sketch.</desc>
    <defs></defs>
    <g id="Page-1" stroke="none" stroke-width="1" fill="none" fill-rule="evenodd">
        <g id="Desktop-HD" transform="translate(-285.000000, -527.000000)" fill="#0C3038">
            <g id="Section-2" transform="translate(0.000000, 479.000000)">
                <g id="Instagram-Icon" transform="translate(285.000000, 48.000000)">
                    <path d="M48.7138188,-1.96809658e-15 L88.2861812,1.96809658e-15 C105.225037,-1.14352079e-15 111.367476,1.76368661 117.560068,5.07552137 C123.752661,8.38735613 128.612644,13.247339 131.924479,19.4399316 C135.236313,25.6325242 137,31.7749627 137,48.7138188 L137,86.2861812 C137,103.225037 135.236313,109.367476 131.924479,115.560068 C128.612644,121.752661 123.752661,126.612644 117.560068,129.924479 C111.367476,133.236313 105.225037,135 88.2861812,135 L48.7138188,135 C31.7749627,135 25.6325242,133.236313 19.4399316,129.924479 C13.247339,126.612644 8.38735613,121.752661 5.07552137,115.560068 C1.76368661,109.367476 7.62347195e-16,103.225037 -1.31206439e-15,86.2861812 L1.31206439e-15,48.7138188 C-7.62347195e-16,31.7749627 1.76368661,25.6325242 5.07552137,19.4399316 C8.38735613,13.247339 13.247339,8.38735613 19.4399316,5.07552137 C25.6325242,1.76368661 31.7749627,1.14352079e-15 48.7138188,-1.96809658e-15 Z M46.6124502,12 C34.5769472,12 30.212583,13.2531458 25.812583,15.6062915 C21.412583,17.9594373 17.9594373,21.412583 15.6062915,25.812583 C13.2531458,30.212583 12,34.5769472 12,46.6124502 L12,88.245214 C12,100.280717 13.2531458,104.645081 15.6062915,109.045081 C17.9594373,113.445081 21.412583,116.898227 25.812583,119.251373 C30.212583,121.604518 34.5769472,122.857664 46.6124502,122.857664 L89.8875498,122.857664 C101.923053,122.857664 106.287417,121.604518 110.687417,119.251373 C115.087417,116.898227 118.540563,113.445081 120.893708,109.045081 C123.246854,104.645081 124.5,100.280717 124.5,88.245214 L124.5,46.6124502 C124.5,34.5769472 123.246854,30.212583 120.893708,25.812583 C118.540563,21.412583 115.087417,17.9594373 110.687417,15.6062915 C106.287417,13.2531458 101.923053,12 89.8875498,12 L46.6124502,12 Z M68.5,102 C49.4461761,102 34,86.5538239 34,67.5 C34,48.4461761 49.4461761,33 68.5,33 C87.5538239,33 103,48.4461761 103,67.5 C103,86.5538239 87.5538239,102 68.5,102 Z M68.5,89 C80.3741221,89 90,79.3741221 90,67.5 C90,55.6258779 80.3741221,46 68.5,46 C56.6258779,46 47,55.6258779 47,67.5 C47,79.3741221 56.6258779,89 68.5,89 Z M105,39.5 C100.581722,39.5 97,35.918278 97,31.5 C97,27.081722 100.581722,23.5 105,23.5 C109.418278,23.5 113,27.081722 113,31.5 C113,35.918278 109.418278,39.5 105,39.5 Z"></path>
                </g>
            </g>
        </g>
    </g>
</svg>