<?xml version="1.0" encoding="UTF-8"?>
<svg width="47px" height="62px" viewBox="0 0 47 62" version="1.1" xmlns="http://www.w3.org/2000/svg" xmlns:xlink="http://www.w3.org/1999/xlink">
    <!-- Generator: Sketch 47.1 (45422) - http://www.bohemiancoding.com/sketch -->
    <title>jpeg</title>
    <desc>Created with Sketch.</desc>
    <defs></defs>
    <g id="Page-1" stroke="none" stroke-width="1" fill="none" fill-rule="evenodd">
        <g id="Desktop-HD" transform="translate(-330.000000, -846.000000)" fill-rule="nonzero">
            <g id="Section-2" transform="translate(0.000000, 479.000000)">
                <g id="jpeg" transform="translate(330.000000, 367.000000)">
                    <path d="M46,16 L46,53.5 C46,57.65 42.65,61 38.5,61 L8.5,61 C4.35,61 1,57.65 1,53.5 L1,8.5 C1,4.35 4.35,1 8.5,1 L31,1 L46,16 Z" id="Shape" fill="#FFFFFF"></path>
                    <path d="M38.5,61.6 L8.5,61.6 C4,61.6 0.4,57.95 0.4,53.5 L0.4,8.5 C0.4,4 4,0.4 8.5,0.4 L31,0.4 C31.15,0.4 31.3,0.45 31.45,0.6 L46.45,15.6 C46.55,15.7 46.65,15.9 46.65,16.05 L46.65,53.55 C46.6,58 43,61.6 38.5,61.6 Z M8.5,1.6 C4.7,1.6 1.6,4.7 1.6,8.5 L1.6,53.5 C1.6,57.3 4.7,60.4 8.5,60.4 L38.5,60.4 C42.3,60.4 45.4,57.3 45.4,53.5 L45.4,16.25 L30.75,1.6 L8.5,1.6 Z" id="Shape" fill="#0C3038"></path>
                    <g id="Group" opacity="0.1" transform="translate(29.000000, 1.000000)" fill="#030505">
                        <path d="M17,17 L17,15 L2,0 L0,0 L0,7.5 C0,12.75 4.25,17 9.5,17 L17,17 Z" id="Shape"></path>
                    </g>
                    <path d="M31,8.5 C31,12.65 34.35,16 38.5,16 L46,16 L31,1 L31,8.5 Z" id="Shape" fill="#AAB2B5"></path>
                    <path d="M46,16.6 L38.5,16.6 C34,16.6 30.4,12.95 30.4,8.5 L30.4,1 C30.4,0.75 30.55,0.5 30.8,0.4 C31.05,0.3 31.3,0.35 31.5,0.55 L46.5,15.55 C46.7,15.75 46.75,16 46.65,16.25 C46.5,16.45 46.25,16.6 46,16.6 Z M31.6,2.5 L31.6,8.5 C31.6,12.3 34.7,15.4 38.5,15.4 L44.5,15.4 L31.6,2.5 Z" id="Shape" fill="#0C3038"></path>
                    <g id="Group" transform="translate(7.500000, 23.500000)" stroke="#2D2E2D" fill="#0C3038" stroke-linecap="round" stroke-linejoin="round">
                        <path d="M2.15,10.3 C2.15,10.9 1.75,11.3 1.15,11.3 C0.55,11.3 0.2,10.9 0.2,10.3 C0.2,9.75 0.6,9.35 1.15,9.35 C1.7,9.35 2.15,9.75 2.15,10.3 Z" id="Shape"></path>
                        <path d="M6.15,12.05 C6.15,13.6 5.25,14.4 3.95,14.4 C3.4,14.4 3,14.3 2.65,14.15 C2.4,14.05 2.35,13.85 2.35,13.65 C2.35,13.55 2.4,13.4 2.45,13.3 C2.55,13.1 2.7,12.95 2.95,12.95 C3,12.95 3.1,12.95 3.2,13 C3.4,13.1 3.6,13.15 3.9,13.15 C4.6,13.15 4.9,12.65 4.9,11.8 L4.9,3.8 C4.9,3.45 5.15,3.25 5.55,3.25 C5.95,3.25 6.2,3.45 6.2,3.8 L6.2,12.05 L6.15,12.05 Z M6.45,1.05 C6.45,1.6 6.05,2 5.5,2 C4.95,2 4.55,1.6 4.55,1.05 C4.55,0.5 4.95,0.1 5.5,0.1 C6,0.1 6.45,0.5 6.45,1.05 Z" id="Shape"></path>
                        <path d="M9.55,13.7 C9.55,14.05 9.3,14.25 8.95,14.25 C8.55,14.25 8.3,14.05 8.3,13.7 L8.3,3.85 C8.3,3.5 8.55,3.3 8.95,3.3 C9.3,3.3 9.55,3.45 9.55,3.8 L9.55,4.05 C9.55,4.25 9.55,4.6 9.5,4.85 C10,3.85 10.75,3.2 12.15,3.2 C14.25,3.2 15.45,4.75 15.45,7.25 C15.45,9.75 14.2,11.45 12.05,11.45 C10.75,11.45 9.95,10.8 9.45,9.8 C9.5,10.05 9.5,10.35 9.5,10.6 L9.5,13.7 L9.55,13.7 Z M9.5,7.3 C9.5,9.05 10.4,10.3 11.9,10.3 C13.35,10.3 14.15,9.1 14.15,7.25 C14.15,5.4 13.35,4.25 11.95,4.25 C10.4,4.3 9.5,5.55 9.5,7.3 Z" id="Shape"></path>
                        <path d="M18,7.55 C18.05,9.3 18.9,10.4 20.4,10.4 C21.4,10.4 22,9.9 22.3,9.15 C22.45,8.9 22.6,8.8 22.8,8.8 C22.9,8.8 23,8.85 23.1,8.85 C23.35,8.9 23.55,9.1 23.55,9.35 C23.55,9.45 23.55,9.5 23.5,9.6 C23.05,10.55 22.25,11.45 20.4,11.45 C18.1,11.45 16.75,9.8 16.75,7.35 C16.75,4.9 18,3.2 20.3,3.2 C22.35,3.2 23.5,4.8 23.65,6.65 C23.65,6.7 23.65,6.7 23.65,6.75 C23.65,7.25 23.4,7.55 22.95,7.55 L18,7.55 Z M22.15,6.5 C22.3,6.5 22.35,6.45 22.35,6.3 C22.35,6.3 22.35,6.25 22.35,6.25 C22.2,5.25 21.55,4.2 20.25,4.2 C18.9,4.2 18.15,5.1 18,6.5 L22.15,6.5 Z" id="Shape"></path>
                        <path d="M30.7,3.8 C30.7,3.5 30.9,3.3 31.3,3.3 C31.7,3.3 31.9,3.5 31.9,3.85 L31.9,10.4 C31.9,13.65 30.2,14.4 28.35,14.4 C26.8,14.4 25.85,13.9 25.3,13.2 C25.25,13.1 25.2,13 25.2,12.9 C25.2,12.7 25.3,12.55 25.45,12.4 C25.55,12.3 25.7,12.25 25.85,12.25 C26,12.25 26.15,12.3 26.25,12.45 C26.75,13.05 27.4,13.35 28.25,13.35 C30,13.35 30.65,12.45 30.65,10.35 C30.65,10.2 30.7,9.85 30.7,9.65 C30.25,10.55 29.45,11.15 28.2,11.15 C26.2,11.15 24.8,9.6 24.8,7.25 C24.8,4.8 26.05,3.2 28.25,3.2 C29.55,3.2 30.35,3.9 30.75,4.8 C30.75,4.65 30.7,4.4 30.7,4.2 L30.7,3.8 L30.7,3.8 Z M26.15,7.25 C26.15,9.05 27.1,10.15 28.4,10.15 C29.85,10.15 30.7,8.9 30.7,7.15 C30.7,5.45 29.85,4.25 28.4,4.25 C27,4.25 26.15,5.45 26.15,7.25 Z" id="Shape"></path>
                    </g>
                </g>
            </g>
        </g>
    </g>
</svg>